<svg width="335" height="33" viewBox="0 0 335 33" fill="none" xmlns="http://www.w3.org/2000/svg">
<path d="M35.32 0.321181L35.672 5.11718L22.604 27.7772C22.604 27.7772 22.4573 28.0412 22.164 28.5692C21.8707 29.0678 21.5773 29.6838 21.284 30.4172C21.02 31.1505 20.888 31.8838 20.888 32.6172H20.448L18.732 28.7892L35.32 0.321181ZM5.488 28.5252V31.7372H0.604V31.2972C0.633333 31.2972 0.765333 31.2972 1 31.2972C1.20533 31.2972 1.308 31.2972 1.308 31.2972C2.1 31.2972 2.804 31.0625 3.42 30.5932C4.036 30.0945 4.40267 29.4052 4.52 28.5252H5.488ZM7.424 29.2292C7.424 29.2585 7.424 29.2878 7.424 29.3172C7.424 29.3465 7.424 29.3905 7.424 29.4492C7.424 29.9185 7.58533 30.3585 7.908 30.7692C8.26 31.1505 8.67067 31.3412 9.14 31.3412H9.8V31.7372H7.116V29.2292H7.424ZM8.172 0.321181H8.568L10.108 4.72118L7.16 31.7372H4.08L8.172 0.321181ZM8.568 0.321181L22.956 23.9492L20.448 32.6172L7.424 10.7492L8.568 0.321181ZM35.716 0.321181L39.896 31.7372H32.812L30.612 11.4972L35.32 0.321181H35.716ZM38.532 28.5252H39.456C39.6027 29.4052 39.984 30.0945 40.6 30.5932C41.216 31.0625 41.9053 31.2972 42.668 31.2972C42.668 31.2972 42.7853 31.2972 43.02 31.2972C43.2547 31.2972 43.372 31.2972 43.372 31.2972V31.7372H38.532V28.5252ZM32.548 29.2292H32.856V31.7372H30.172V31.3412H30.832C31.3307 31.3412 31.7413 31.1505 32.064 30.7692C32.3867 30.3585 32.548 29.9185 32.548 29.4492C32.548 29.3905 32.548 29.3465 32.548 29.3172C32.548 29.2878 32.548 29.2585 32.548 29.2292ZM53.8495 5.33718V31.7372H47.5135V5.33718H53.8495ZM47.6455 28.9652V31.7372H44.4335V31.2972C44.4335 31.2972 44.5215 31.2972 44.6975 31.2972C44.8735 31.2972 44.9762 31.2972 45.0055 31.2972C45.6802 31.2972 46.2668 31.0772 46.7655 30.6372C47.2642 30.1678 47.5135 29.6105 47.5135 28.9652H47.6455ZM53.7615 28.9652H53.8495C53.8788 29.6105 54.1282 30.1678 54.5975 30.6372C55.0962 31.0772 55.6975 31.2972 56.4015 31.2972C56.4015 31.2972 56.4748 31.2972 56.6215 31.2972C56.7975 31.2972 56.9002 31.2972 56.9295 31.2972V31.7372H53.7615V28.9652ZM53.7615 8.10918V5.33718H56.9295L56.8855 5.77718C56.8855 5.77718 56.8122 5.77718 56.6655 5.77718C56.5188 5.77718 56.4308 5.77718 56.4015 5.77718C55.6975 5.77718 55.0962 5.99718 54.5975 6.43718C54.1282 6.87718 53.8788 7.43452 53.8495 8.10918H53.7615ZM47.6455 8.10918H47.5135C47.5135 7.43452 47.2642 6.87718 46.7655 6.43718C46.2668 5.99718 45.6655 5.77718 44.9615 5.77718C44.9615 5.77718 44.8735 5.77718 44.6975 5.77718C44.5215 5.77718 44.4335 5.77718 44.4335 5.77718V5.33718H47.6455V8.10918ZM62.4103 4.72118L88.2383 27.4252L88.6783 32.3092L62.8943 9.60518L62.4103 4.72118ZM62.5863 29.0532V31.7372H59.3303V31.2972C59.3303 31.2972 59.4476 31.2972 59.6823 31.2972C59.9169 31.2972 60.0343 31.2972 60.0343 31.2972C60.7089 31.2972 61.2809 31.0918 61.7503 30.6812C62.2196 30.2412 62.4543 29.6985 62.4543 29.0532H62.5863ZM68.4823 29.0532C68.5116 29.6985 68.7609 30.2412 69.2303 30.6812C69.6996 31.0918 70.2569 31.2972 70.9023 31.2972C70.9023 31.2972 71.0196 31.2972 71.2543 31.2972C71.5183 31.2972 71.6503 31.2972 71.6503 31.2972V31.7372H68.3943V29.0532H68.4823ZM62.4103 4.72118L68.4823 11.3212V31.7372H62.4543V9.73718C62.4543 8.24118 62.3809 7.03852 62.2343 6.12918C62.0876 5.19052 62.0143 4.72118 62.0143 4.72118H62.4103ZM88.6343 5.33718V27.1612C88.6343 28.1878 88.6636 29.0972 88.7223 29.8892C88.8103 30.6518 88.8836 31.2532 88.9423 31.6932C89.0303 32.1038 89.0743 32.3092 89.0743 32.3092H88.6783L82.6063 25.3132V5.33718H88.6343ZM88.5023 8.02118V5.33718H91.8023V5.77718C91.8023 5.77718 91.6703 5.77718 91.4063 5.77718C91.1716 5.77718 91.0543 5.77718 91.0543 5.77718C90.4089 5.77718 89.8369 5.99718 89.3383 6.43718C88.8689 6.84785 88.6343 7.37585 88.6343 8.02118H88.5023ZM82.6063 8.02118C82.5769 7.37585 82.3276 6.84785 81.8583 6.43718C81.4183 5.99718 80.8609 5.77718 80.1863 5.77718C80.1863 5.77718 80.0543 5.77718 79.7903 5.77718C79.5556 5.77718 79.4383 5.77718 79.4383 5.77718V5.33718H82.6943V8.02118H82.6063ZM109.063 5.46918V31.7372H102.683V5.46918H109.063ZM118.655 5.29318V7.05318H93.1353V5.29318H118.655ZM118.655 6.92118V11.5852H118.171V11.1892C118.201 9.92785 117.849 8.93051 117.115 8.19718C116.411 7.46385 115.429 7.08252 114.167 7.05318V6.92118H118.655ZM118.655 4.63318V5.73318L113.991 5.29318C114.549 5.29318 115.15 5.26385 115.795 5.20518C116.441 5.11718 117.027 5.02918 117.555 4.94118C118.083 4.82385 118.45 4.72118 118.655 4.63318ZM102.771 28.9652V31.7372H99.8233V31.2972C99.8233 31.2972 99.8966 31.2972 100.043 31.2972C100.219 31.2972 100.307 31.2972 100.307 31.2972C100.953 31.2972 101.495 31.0772 101.935 30.6372C102.405 30.1678 102.654 29.6105 102.683 28.9652H102.771ZM108.931 28.9652H109.063C109.063 29.6105 109.298 30.1678 109.767 30.6372C110.237 31.0772 110.809 31.2972 111.483 31.2972C111.483 31.2972 111.557 31.2972 111.703 31.2972C111.879 31.2972 111.967 31.2972 111.967 31.2972V31.7372H108.931V28.9652ZM97.6233 6.92118V7.05318C96.3326 7.08252 95.3353 7.46385 94.6313 8.19718C93.9566 8.93051 93.6193 9.92785 93.6193 11.1892V11.5852H93.1353V6.92118H97.6233ZM93.1353 4.63318C93.3993 4.69185 93.7806 4.77985 94.2793 4.89718C94.8073 5.01452 95.3793 5.11718 95.9953 5.20518C96.6406 5.26385 97.2273 5.29318 97.7553 5.29318L93.1353 5.73318V4.63318ZM134.787 0.277181L162.859 27.0292L163.387 32.3532L135.315 5.64518L134.787 0.277181ZM135.007 28.6132V31.7372H131.355V31.2972C131.355 31.2972 131.487 31.2972 131.751 31.2972C132.015 31.2972 132.162 31.2972 132.191 31.2972C132.924 31.2972 133.555 31.0332 134.083 30.5052C134.611 29.9772 134.875 29.3465 134.875 28.6132H135.007ZM141.167 28.6132C141.167 29.3465 141.431 29.9772 141.959 30.5052C142.487 31.0332 143.118 31.2972 143.851 31.2972C143.88 31.2972 144.027 31.2972 144.291 31.2972C144.555 31.2972 144.687 31.2972 144.687 31.2972V31.7372H141.035V28.6132H141.167ZM134.787 0.277181L141.123 7.00918L141.167 31.7372H134.875V5.77718C134.875 4.13451 134.787 2.81452 134.611 1.81718C134.435 0.790515 134.347 0.277181 134.347 0.277181H134.787ZM163.255 0.937181V26.7212C163.255 27.8065 163.299 28.7892 163.387 29.6692C163.475 30.5198 163.563 31.1798 163.651 31.6492C163.739 32.1185 163.783 32.3532 163.783 32.3532H163.387L157.007 25.2252V0.937181H163.255ZM166.775 0.937181V1.37718C166.775 1.37718 166.643 1.37718 166.379 1.37718C166.115 1.37718 165.983 1.37718 165.983 1.37718C165.25 1.37718 164.619 1.64118 164.091 2.16918C163.563 2.66785 163.284 3.29851 163.255 4.06118H163.123V0.937181H166.775ZM153.443 0.937181H157.095V4.06118H157.007C156.978 3.29851 156.699 2.66785 156.171 2.16918C155.672 1.64118 155.042 1.37718 154.279 1.37718C154.279 1.37718 154.147 1.37718 153.883 1.37718C153.619 1.37718 153.472 1.37718 153.443 1.37718V0.937181ZM178.456 5.33718V31.7372H172.12V5.33718H178.456ZM188.752 29.9772L189.764 31.7372H178.368V29.9772H188.752ZM187.256 17.7892V19.5492H178.368V17.7892H187.256ZM189.236 5.33718V7.09718H178.368V5.33718H189.236ZM191.568 23.6412L189.896 31.7372H182.284L183.648 29.9772C184.909 29.9772 186.024 29.7278 186.992 29.2292C187.989 28.7012 188.84 27.9678 189.544 27.0292C190.248 26.0612 190.79 24.9318 191.172 23.6412H191.568ZM187.256 19.4612V23.3332H186.816V22.9812C186.816 22.0132 186.508 21.2065 185.892 20.5612C185.305 19.9158 184.498 19.5785 183.472 19.5492V19.4612H187.256ZM187.256 14.0052V17.8772H183.472V17.7892C184.498 17.7598 185.305 17.4225 185.892 16.7772C186.508 16.1025 186.816 15.2812 186.816 14.3132V14.0052H187.256ZM189.236 7.00918V11.6732H188.796V11.2772C188.796 9.98652 188.444 8.97452 187.74 8.24118C187.065 7.50785 186.082 7.12652 184.792 7.09718V7.00918H189.236ZM189.236 4.67718V5.73318L184.616 5.33718C185.466 5.33718 186.361 5.26385 187.3 5.11718C188.238 4.94118 188.884 4.79452 189.236 4.67718ZM172.208 28.9652L172.428 31.7372H169.172V31.2972C169.172 31.2972 169.26 31.2972 169.436 31.2972C169.612 31.2972 169.714 31.2972 169.744 31.2972C170.389 31.2972 170.932 31.0772 171.372 30.6372C171.841 30.1678 172.09 29.6105 172.12 28.9652H172.208ZM172.208 8.10918H172.12C172.09 7.43452 171.841 6.87718 171.372 6.43718C170.932 5.99718 170.389 5.77718 169.744 5.77718C169.714 5.77718 169.612 5.77718 169.436 5.77718C169.26 5.77718 169.172 5.77718 169.172 5.77718V5.33718H172.428L172.208 8.10918ZM194.272 5.60118H201.092L207.032 21.2652L204.568 32.2212L194.272 5.60118ZM213.94 4.72118L214.732 8.76918L205.976 27.7772C205.976 27.7772 205.888 27.9972 205.712 28.4372C205.565 28.8772 205.404 29.4345 205.228 30.1092C205.052 30.7838 204.964 31.4878 204.964 32.2212H204.568L203.38 27.3372L213.588 4.72118H213.94ZM213.94 4.72118L222.564 22.0572L220.496 32.2212L211.036 13.1692L213.94 4.72118ZM228.812 5.60118L221.596 27.7772C221.596 27.7772 221.522 28.0118 221.376 28.4812C221.258 28.9505 221.141 29.5372 221.024 30.2412C220.906 30.9158 220.862 31.5758 220.892 32.2212H220.496L219.308 28.2612L225.996 5.60118H228.812ZM225.204 8.19718C225.438 7.34652 225.38 6.73052 225.028 6.34918C224.705 5.96785 224.294 5.77718 223.796 5.77718H223.444V5.33718H231.716V5.77718C231.716 5.77718 231.657 5.77718 231.54 5.77718C231.452 5.77718 231.408 5.77718 231.408 5.77718C230.733 5.77718 230.058 5.98251 229.384 6.39318C228.709 6.77451 228.24 7.37585 227.976 8.19718H225.204ZM202.104 8.19718H195.284C194.961 7.37585 194.492 6.77451 193.876 6.39318C193.26 5.98251 192.585 5.77718 191.852 5.77718C191.852 5.77718 191.793 5.77718 191.676 5.77718C191.558 5.77718 191.5 5.77718 191.5 5.77718V5.33718H203.864V5.77718H203.512C203.042 5.77718 202.617 5.96785 202.236 6.34918C201.854 6.73052 201.81 7.34652 202.104 8.19718ZM246.549 0.277181L274.621 27.0292L275.149 32.3532L247.077 5.64518L246.549 0.277181ZM246.769 28.6132V31.7372H243.117V31.2972C243.117 31.2972 243.249 31.2972 243.513 31.2972C243.777 31.2972 243.924 31.2972 243.953 31.2972C244.686 31.2972 245.317 31.0332 245.845 30.5052C246.373 29.9772 246.637 29.3465 246.637 28.6132H246.769ZM252.929 28.6132C252.929 29.3465 253.193 29.9772 253.721 30.5052C254.249 31.0332 254.88 31.2972 255.613 31.2972C255.642 31.2972 255.789 31.2972 256.053 31.2972C256.317 31.2972 256.449 31.2972 256.449 31.2972V31.7372H252.797V28.6132H252.929ZM246.549 0.277181L252.885 7.00918L252.929 31.7372H246.637V5.77718C246.637 4.13451 246.549 2.81452 246.373 1.81718C246.197 0.790515 246.109 0.277181 246.109 0.277181H246.549ZM275.017 0.937181V26.7212C275.017 27.8065 275.061 28.7892 275.149 29.6692C275.237 30.5198 275.325 31.1798 275.413 31.6492C275.501 32.1185 275.545 32.3532 275.545 32.3532H275.149L268.769 25.2252V0.937181H275.017ZM278.537 0.937181V1.37718C278.537 1.37718 278.405 1.37718 278.141 1.37718C277.877 1.37718 277.745 1.37718 277.745 1.37718C277.012 1.37718 276.381 1.64118 275.853 2.16918C275.325 2.66785 275.046 3.29851 275.017 4.06118H274.885V0.937181H278.537ZM265.205 0.937181H268.857V4.06118H268.769C268.74 3.29851 268.461 2.66785 267.933 2.16918C267.434 1.64118 266.804 1.37718 266.041 1.37718C266.041 1.37718 265.909 1.37718 265.645 1.37718C265.381 1.37718 265.234 1.37718 265.205 1.37718V0.937181ZM291.016 0.937181V31.7372H284.416V0.937181H291.016ZM301.004 15.6332V17.4812H290.884V15.6332H301.004ZM303.16 0.937181V2.82918H290.884V0.937181H303.16ZM301.004 17.3932V21.6172H300.564V21.2652C300.564 20.1798 300.212 19.2852 299.508 18.5812C298.804 17.8772 297.909 17.5105 296.824 17.4812V17.3932H301.004ZM301.004 11.4972V15.7212H296.824V15.6332C297.909 15.6038 298.804 15.2372 299.508 14.5332C300.212 13.7998 300.564 12.8905 300.564 11.8052V11.4972H301.004ZM303.16 2.69718V7.58118H302.72V7.14118C302.72 5.82118 302.324 4.77985 301.532 4.01718C300.769 3.22518 299.728 2.82918 298.408 2.82918V2.69718H303.16ZM303.16 0.14518V1.42118L297.792 0.937181C298.437 0.937181 299.112 0.893181 299.816 0.805182C300.549 0.717182 301.224 0.614515 301.84 0.497181C302.456 0.379847 302.896 0.262514 303.16 0.14518ZM284.548 28.5252V31.7372H281.028V31.2972C281.028 31.2972 281.116 31.2972 281.292 31.2972C281.497 31.2972 281.6 31.2972 281.6 31.2972C282.362 31.2972 283.008 31.0332 283.536 30.5052C284.093 29.9478 284.386 29.2878 284.416 28.5252H284.548ZM284.548 4.14918H284.416C284.386 3.38651 284.093 2.74118 283.536 2.21318C283.008 1.65585 282.362 1.37718 281.6 1.37718C281.6 1.37718 281.497 1.37718 281.292 1.37718C281.116 1.37718 281.028 1.37718 281.028 1.37718V0.937181H284.548V4.14918ZM290.884 28.5252H291.016C291.045 29.2878 291.324 29.9478 291.852 30.5052C292.409 31.0332 293.069 31.2972 293.832 31.2972C293.832 31.2972 293.92 31.2972 294.096 31.2972C294.272 31.2972 294.374 31.2972 294.404 31.2972V31.7372H290.884V28.5252ZM323.387 1.06918V31.7372H316.787V1.06918H323.387ZM334.167 0.893181V2.74118H306.007V0.893181H334.167ZM334.167 2.60918V7.80118L333.727 7.75718V7.27318C333.727 5.89451 333.316 4.80918 332.495 4.01718C331.703 3.19585 330.617 2.77051 329.239 2.74118V2.60918H334.167ZM334.167 0.101181V1.37718L328.799 0.893181C329.444 0.893181 330.119 0.849181 330.823 0.76118C331.556 0.673181 332.231 0.570515 332.847 0.453182C333.463 0.335848 333.903 0.218514 334.167 0.101181ZM316.919 28.5252V31.7372H313.399V31.2972C313.399 31.2972 313.487 31.2972 313.663 31.2972C313.868 31.2972 313.971 31.2972 313.971 31.2972C314.733 31.2972 315.379 31.0332 315.907 30.5052C316.464 29.9478 316.757 29.2878 316.787 28.5252H316.919ZM323.255 28.5252H323.387C323.416 29.2878 323.695 29.9478 324.223 30.5052C324.78 31.0332 325.44 31.2972 326.203 31.2972C326.203 31.2972 326.291 31.2972 326.467 31.2972C326.672 31.2972 326.775 31.2972 326.775 31.2972V31.7372H323.255V28.5252ZM310.891 2.60918V2.74118C309.541 2.77051 308.456 3.19585 307.635 4.01718C306.843 4.80918 306.447 5.89451 306.447 7.27318V7.75718L306.007 7.80118V2.60918H310.891ZM306.007 0.101181C306.3 0.218514 306.74 0.335848 307.327 0.453182C307.943 0.570515 308.617 0.673181 309.351 0.76118C310.084 0.849181 310.759 0.893181 311.375 0.893181L306.007 1.37718V0.101181Z" fill="url(#paint0_linear_0_1223)"/>
<defs>
<linearGradient id="paint0_linear_0_1223" x1="4.81548" y1="15.3335" x2="301.548" y2="15.3335" gradientUnits="userSpaceOnUse">
<stop stop-color="#E7E7E7"/>
<stop offset="0.311688" stop-color="#9E9E9E"/>
<stop offset="0.634199" stop-color="#F2F2F2"/>
<stop offset="1" stop-color="#949494"/>
</linearGradient>
</defs>
</svg>
