<svg width="16" height="15" viewBox="0 0 16 15" fill="none" xmlns="http://www.w3.org/2000/svg">
<path d="M0.499756 9.5614C0.632364 9.5614 0.759541 9.61408 0.853309 9.70785C0.947077 9.80162 0.999756 9.92879 0.999756 10.0614V12.5614C0.999756 12.8266 1.10511 13.081 1.29265 13.2685C1.48019 13.456 1.73454 13.5614 1.99976 13.5614H13.9998C14.265 13.5614 14.5193 13.456 14.7069 13.2685C14.8944 13.081 14.9998 12.8266 14.9998 12.5614V10.0614C14.9998 9.92879 15.0524 9.80162 15.1462 9.70785C15.24 9.61408 15.3671 9.5614 15.4998 9.5614C15.6324 9.5614 15.7595 9.61408 15.8533 9.70785C15.9471 9.80162 15.9998 9.92879 15.9998 10.0614V12.5614C15.9998 13.0918 15.789 13.6005 15.414 13.9756C15.0389 14.3507 14.5302 14.5614 13.9998 14.5614H1.99976C1.46932 14.5614 0.960615 14.3507 0.585542 13.9756C0.21047 13.6005 -0.000244141 13.0918 -0.000244141 12.5614V10.0614C-0.000244141 9.92879 0.0524343 9.80162 0.146202 9.70785C0.239971 9.61408 0.367148 9.5614 0.499756 9.5614Z" fill="white"/>
<path d="M7.64541 0.807416C7.69186 0.760853 7.74703 0.72391 7.80778 0.698704C7.86852 0.673497 7.93364 0.660522 7.99941 0.660522C8.06518 0.660522 8.1303 0.673497 8.19104 0.698704C8.25179 0.72391 8.30697 0.760853 8.35341 0.807416L11.3534 3.80742C11.4473 3.9013 11.5 4.02864 11.5 4.16142C11.5 4.29419 11.4473 4.42153 11.3534 4.51542C11.2595 4.6093 11.1322 4.66205 10.9994 4.66205C10.8666 4.66205 10.7393 4.6093 10.6454 4.51542L8.49941 2.36842V11.1614C8.49941 11.294 8.44673 11.4212 8.35296 11.515C8.2592 11.6087 8.13202 11.6614 7.99941 11.6614C7.8668 11.6614 7.73963 11.6087 7.64586 11.515C7.55209 11.4212 7.49941 11.294 7.49941 11.1614V2.36842L5.35341 4.51542C5.30692 4.5619 5.25173 4.59878 5.19099 4.62394C5.13026 4.6491 5.06515 4.66205 4.99941 4.66205C4.93367 4.66205 4.86857 4.6491 4.80783 4.62394C4.74709 4.59878 4.6919 4.5619 4.64541 4.51542C4.59892 4.46893 4.56205 4.41374 4.53689 4.353C4.51173 4.29226 4.49878 4.22716 4.49878 4.16142C4.49878 4.09567 4.51173 4.03057 4.53689 3.96983C4.56205 3.90909 4.59892 3.8539 4.64541 3.80742L7.64541 0.807416Z" fill="white"/>
</svg>
