<svg width="28" height="29" viewBox="0 0 28 29" xmlns="http://www.w3.org/2000/svg">
<path d="M23.3337 3.87708H5.83374C3.90407 3.87708 2.33374 5.44741 2.33374 7.37708V21.3771C2.33374 23.3067 3.90407 24.8771 5.83374 24.8771H23.3337C24.6206 24.8771 25.6671 23.8306 25.6671 22.5437V6.21041C25.6671 4.92358 24.6206 3.87708 23.3337 3.87708ZM5.83374 22.5437C5.18974 22.5437 4.66707 22.0199 4.66707 21.3771V7.37708C4.66707 6.73424 5.18974 6.21041 5.83374 6.21041H23.3337V9.71041H16.3337C15.0469 9.71041 14.0004 10.7569 14.0004 12.0437V16.7104C14.0004 17.9972 15.0469 19.0437 16.3337 19.0437H23.3349V22.5437H5.83374ZM23.3337 12.0437V16.7104H16.3337V12.0437H23.3337Z" fill="white"/>
</svg>
